<svg xmlns="http://www.w3.org/2000/svg" width="101" height="30" fill="none"><path fill="#fff" d="m15.218 0 7.02 6.919-7.02 6.918-7.02-6.918zM23.417 8.081 30.437 15l-7.02 6.919-7.02-6.92zM15.218 16.163l7.02 6.918-7.02 6.92-7.02-6.92zM7.02 8.081 14.039 15l-7.02 6.919L0 15z"/><ellipse cx="15.511" cy="14.711" fill="#B4436D" rx="4.39" ry="4.327"/><path fill="#fff" d="M41.509 24V6.24h8.208q1.728 0 2.904.6 1.2.6 1.824 1.608.624.984.624 2.184 0 1.176-.432 1.968-.432.768-1.056 1.248-.6.456-1.176.624v.192q.648.144 1.44.624t1.368 1.368.576 2.304q0 1.248-.6 2.4-.576 1.152-1.896 1.896-1.296.744-3.384.744zm7.584-14.664h-3.888v4.128h3.888q1.248 0 1.824-.6t.576-1.464q0-.84-.576-1.44-.576-.624-1.824-.624m.288 6.96h-4.176v4.608h4.176q1.416 0 2.04-.672a2.35 2.35 0 0 0 .648-1.656q0-.936-.648-1.608-.624-.672-2.04-.672m15 7.944q-1.68 0-2.904-.552-1.224-.576-2.016-1.512a6.9 6.9 0 0 1-1.2-2.136 7.841 7.841 0 0 1-.024-4.776 6.7 6.7 0 0 1 1.152-2.136 5.54 5.54 0 0 1 1.991-1.512q1.224-.576 2.88-.576 1.752 0 3.096.768 1.37.768 2.137 2.28.767 1.488.767 3.624v.888h-8.712q.073 1.152.792 1.992.744.84 2.04.84.745 0 1.2-.216.48-.24.745-.528.263-.312.36-.552l.096-.24h3.36l-.12.456q-.096.432-.433 1.08-.335.648-.983 1.296-.624.648-1.657 1.08-1.03.432-2.567.432m-2.833-7.848h5.209q-.073-1.32-.793-1.968t-1.775-.648-1.8.696q-.745.672-.84 1.92M78.98 24.24q-1.68 0-2.928-.552-1.248-.576-2.064-1.512a6.4 6.4 0 0 1-1.224-2.112 7.5 7.5 0 0 1-.408-2.424q0-1.224.408-2.4a6.4 6.4 0 0 1 1.224-2.112q.816-.96 2.064-1.512 1.248-.576 2.928-.576 1.704 0 2.808.504 1.104.48 1.752 1.224.672.72.984 1.464.312.72.384 1.224l.096.48h-3.408l-.096-.288q-.072-.312-.336-.696-.24-.408-.744-.696-.504-.312-1.344-.312-1.032 0-1.728.528a3.06 3.06 0 0 0-1.008 1.344 4.9 4.9 0 0 0-.336 1.824q0 .984.336 1.824t1.008 1.368q.696.504 1.728.504.84 0 1.344-.288.504-.312.744-.696.264-.408.336-.696l.096-.312h3.408l-.096.504q-.072.48-.384 1.224-.312.72-.984 1.464-.648.72-1.752 1.224-1.104.48-2.808.48M90.56 24l-4.656-12.72h3.648l2.976 8.616 2.856-8.616h3.672L94.376 24z"/></svg>