<svg xmlns="http://www.w3.org/2000/svg" width="418" height="68" fill="none" xmlns:v="https://vecta.io/nano"><path fill-rule="evenodd" d="M0 29.272c49.811 3.883 142.803 3.595 173.912-.397 21.624-2.775 41.234-6.884 60.313-10.882 9.122-1.911 18.188-4.302 27.322-6.711C282.757 5.689 304.329 0 327.8 0c21.918 0 42.092 9.713 61.037 18.833 5.986 2.882 11.85 5.705 17.607 8.143l.008.004.006.003L418 31.818v35.904H0v-38.45zm304.713-18.374c.504.522-.617.934-1.537 1.271l-.013.005c-.312.114-.495.193-.63.251-.263.114-.34.147-.83.209-.089.011-.313.075-.529.137-.202.058-.397.114-.468.122-.374.046-.655.162-.902.264-.153.063-.292.12-.433.153-.906.208-1.819.377-2.657.532l-.103.019c-.89.164-1.7.316-2.482.5-1.502.354-3.015.66-4.483.953l-.45.089c-.626.125-1.156.186-1.676.246-.578.067-1.143.132-1.811.282-.839.187-1.518.3-2.186.411-.76.126-1.507.25-2.465.479-.24.057-.813.169-1.385.281h-.001l-1.373.278c-.999.238-1.863.389-2.194-.189-.227-.395-.155-.432.246-.633a7.13 7.13 0 0 0 .766-.434c.233-.056.79-.237 1.346-.418l1.347-.419c.845-.203 1.46-.387 2.062-.568h0c.685-.205 1.356-.407 2.335-.625 1.342-.3 2.697-.569 4.01-.83h0l.452-.09 4.274-.907c.949-.224 1.902-.401 2.776-.562l.054-.01a3.4 3.4 0 0 1 .924-.052c.245.014.475.027.866-.063.267-.061.642-.166 1.04-.277.66-.184 1.38-.386 1.765-.433l.087-.011.243-.03c.766-.098 1.182-.177 1.428-.268.923-.338 2.081-.187 2.587.338zM16.159 34.187c.533-.072 1.183-.161 1.089-.672s-.604-.872-1.139-.799c-.143.02-.364-.005-.756-.087l-.168-.037h-.001c-.197-.043-.597-.036-.963-.029-.22.004-.429.008-.573.001-.212-.011-.318-.069-.431-.13s-.227-.123-.456-.151l-.028-.003c-.462-.055-.966-.115-1.481-.137-.754-.032-1.51-.102-2.292-.179l-.24-.023-2.145-.184c-.528-.032-.904-.015-1.289.003-.338.016-.683.032-1.143.015-.128-.005-.444.021-.759.047s-.632.052-.759.047c-.216.099-.373.146-.487.18-.248.074-.292.087-.295.442-.004.519.45.58.993.602.13.005.431.037.733.068l.739.068c.521.02.912.078 1.31.137.35.052.705.105 1.158.133.361.022.648.088.943.156.265.061.535.123.868.155l.24.023a44.4 44.4 0 0 0 2.404.186c.425.018.853.068 1.324.124l.054.007c.443.053.926.111 1.416.136.076.004.159-.012.249-.029.146-.028.313-.06.504-.019.037.008.145.005.258.002.12-.003.245-.007.29.003.251.053.297.043.455.009a4.49 4.49 0 0 1 .37-.065l.008-.001z" fill="#fff"/></svg>