<svg xmlns="http://www.w3.org/2000/svg" width="24" height="24" fill="none" xmlns:v="https://vecta.io/nano"><path d="M10.307 7.22c.642-1.601.963-2.401 1.485-2.512a1 1 0 0 1 .416 0c.522.111.843.911 1.485 2.512.365.91.548 1.365.889 1.675.096.087.2.164.311.231.395.238.888.282 1.874.37 1.669.149 2.503.224 2.758.7a1 1 0 0 1 .106.316c.085.533-.529 1.091-1.756 2.207l-.341.31c-.573.522-.86.783-1.026 1.108a2 2 0 0 0-.197.623c-.052.362.032.74.2 1.497l.06.27c.301 1.358.452 2.036.264 2.37a1 1 0 0 1-.823.508c-.383.018-.921-.421-2-1.299-.71-.579-1.065-.868-1.46-.981a2 2 0 0 0-1.102 0c-.394.113-.749.402-1.46.981-1.078.878-1.617 1.318-1.999 1.299a1 1 0 0 1-.824-.508c-.188-.334-.037-1.012.264-2.37l.06-.27c.168-.757.252-1.136.2-1.497a2 2 0 0 0-.197-.623c-.166-.326-.453-.586-1.026-1.108l-.341-.31c-1.227-1.116-1.84-1.674-1.756-2.207a1 1 0 0 1 .106-.316c.255-.476 1.089-.55 2.758-.7.986-.088 1.479-.132 1.874-.37a2 2 0 0 0 .311-.231c.342-.31.524-.765.889-1.675z" fill="#d4d4d8" stroke="#d4d4d8" stroke-width="2"/></svg>