<svg xmlns="http://www.w3.org/2000/svg" width="141" height="24" fill="none" xmlns:v="https://vecta.io/nano"><use href="#B" fill="#4ca154"/><use href="#B" x="-8.192" fill="#263fa9"/><path d="M55.769 17.808h-6.288l-1.008 2.976h-4.296l6.096-16.848h4.752l6.096 16.848h-4.344l-1.008-2.976zm-1.056-3.168l-2.088-6.168-2.064 6.168h4.152zM66.84 3.024v17.76h-4.104V3.024h4.104zm1.918 11.04c0-1.376.256-2.584.768-3.624.528-1.04 1.24-1.84 2.136-2.4s1.896-.84 3-.84c.944 0 1.768.192 2.472.576.72.384 1.272.888 1.656 1.512V7.392h4.104v13.392H78.79v-1.896c-.4.624-.96 1.128-1.68 1.512-.704.384-1.528.576-2.472.576-1.088 0-2.08-.28-2.976-.84-.896-.576-1.608-1.384-2.136-2.424-.512-1.056-.768-2.272-.768-3.648zm10.032.024c0-1.024-.288-1.832-.864-2.424a2.73 2.73 0 0 0-2.064-.888c-.816 0-1.512.296-2.088.888-.56.576-.84 1.376-.84 2.4s.28 1.84.84 2.448c.576.592 1.272.888 2.088.888a2.73 2.73 0 0 0 2.064-.888c.576-.592.864-1.4.864-2.424zm10.937-4.464a5.3 5.3 0 0 1 1.8-1.728c.72-.432 1.52-.648 2.4-.648v4.344h-1.128c-1.024 0-1.792.224-2.304.672-.512.432-.768 1.2-.768 2.304v6.216h-4.104V7.392h4.104v2.232zm5.106 4.44c0-1.376.256-2.584.768-3.624.528-1.04 1.24-1.84 2.136-2.4s1.896-.84 3-.84c.944 0 1.768.192 2.472.576.72.384 1.272.888 1.656 1.512V7.392h4.104v13.392h-4.104v-1.896c-.4.624-.96 1.128-1.68 1.512-.704.384-1.528.576-2.472.576-1.088 0-2.08-.28-2.976-.84-.896-.576-1.608-1.384-2.136-2.424-.512-1.056-.768-2.272-.768-3.648zm10.032.024c0-1.024-.288-1.832-.864-2.424a2.73 2.73 0 0 0-2.064-.888c-.816 0-1.512.296-2.088.888-.56.576-.84 1.376-.84 2.4s.28 1.84.84 2.448c.576.592 1.272.888 2.088.888a2.73 2.73 0 0 0 2.064-.888c.576-.592.864-1.4.864-2.424zm6.017-.024c0-1.376.256-2.584.768-3.624.528-1.04 1.24-1.84 2.136-2.4s1.896-.84 3-.84c.88 0 1.68.184 2.4.552.736.368 1.312.864 1.728 1.488V3.024h4.104v17.76h-4.104v-1.92c-.384.64-.936 1.152-1.656 1.536-.704.384-1.528.576-2.472.576-1.104 0-2.104-.28-3-.84-.896-.576-1.608-1.384-2.136-2.424-.512-1.056-.768-2.272-.768-3.648zm10.032.024c0-1.024-.288-1.832-.864-2.424a2.73 2.73 0 0 0-2.064-.888c-.816 0-1.512.296-2.088.888-.56.576-.84 1.376-.84 2.4s.28 1.84.84 2.448c.576.592 1.272.888 2.088.888a2.73 2.73 0 0 0 2.064-.888c.576-.592.864-1.4.864-2.424zm12.929 6.888c-1.312 0-2.496-.28-3.552-.84-1.04-.56-1.864-1.36-2.472-2.4-.592-1.04-.888-2.256-.888-3.648 0-1.376.304-2.584.912-3.624.608-1.056 1.44-1.864 2.496-2.424s2.24-.84 3.552-.84 2.496.28 3.552.84 1.888 1.368 2.496 2.424c.608 1.04.912 2.248.912 3.624s-.312 2.592-.936 3.648a6.17 6.17 0 0 1-2.52 2.4c-1.056.56-2.24.84-3.552.84zm0-3.552c.784 0 1.448-.288 1.992-.864.56-.576.84-1.4.84-2.472s-.272-1.896-.816-2.472a2.56 2.56 0 0 0-1.968-.864c-.8 0-1.464.288-1.992.864-.528.56-.792 1.384-.792 2.472 0 1.072.256 1.896.768 2.472a2.56 2.56 0 0 0 1.968.864z" fill="#f2f9fe"/><defs ><path id="B" d="M18.77 1.422a2 2 0 0 1 2.828 0l9.164 9.164a2 2 0 0 1 0 2.828l-9.164 9.164a2 2 0 0 1-2.828 0l-9.164-9.164a2 2 0 0 1 0-2.828l9.164-9.164z"/></defs></svg>