<svg xmlns="http://www.w3.org/2000/svg" width="189" height="40" fill="none" xmlns:v="https://vecta.io/nano"><g fill="#f2f5f9"><path d="M0 .721A.72.72 0 0 1 .721 0h5.405a.72.72 0 0 1 .721.721v5.405a.72.72 0 0 1-.721.721H.721A.72.72 0 0 1 0 6.126V.721zm33.153 0A.72.72 0 0 1 33.874 0h5.405A.72.72 0 0 1 40 .721v5.405a.72.72 0 0 1-.721.721h-5.405a.72.72 0 0 1-.721-.721V.721zM8.288 9.009a.72.72 0 0 1 .721-.721h5.405a.72.72 0 0 1 .721.721v5.405a.72.72 0 0 1-.721.721H9.009a.72.72 0 0 1-.721-.721V9.009zm16.577 0a.72.72 0 0 1 .721-.721h5.405a.72.72 0 0 1 .721.721v5.405a.72.72 0 0 1-.721.721h-5.405a.72.72 0 0 1-.721-.721V9.009z"/><use href="#B"/><use href="#C"/><path d="M0 25.586a.72.72 0 0 1 .721-.721h5.405a.72.72 0 0 1 .721.721v5.405a.72.72 0 0 1-.721.721H.721A.72.72 0 0 1 0 30.991v-5.405z"/><use href="#C" y="8.289"/><use href="#C" x="8.288" y="8.289"/><use href="#B" y="16.577"/><use href="#C" x="8.288" y="16.577"/><use href="#C" x="16.576" y="16.577"/><path d="M68.802 32.32c-1.6 0-3.093-.299-4.48-.896s-2.603-1.419-3.648-2.464a11.98 11.98 0 0 1-2.464-3.68c-.576-1.408-.864-2.912-.864-4.512s.288-3.093.864-4.48a11.87 11.87 0 0 1 2.432-3.648 11 11 0 0 1 3.616-2.464c1.387-.597 2.88-.896 4.48-.896s3.083.299 4.448.896a10.92 10.92 0 0 1 3.648 2.464c1.045 1.045 1.856 2.272 2.432 3.68.597 1.387.896 2.88.896 4.48s-.299 3.104-.896 4.512a11.16 11.16 0 0 1-2.432 3.648c-1.024 1.045-2.229 1.867-3.616 2.464-1.365.597-2.837.896-4.416.896zm10.24 1.216l-10.08-10.08 2.368-2.368 10.08 10.08-2.368 2.368zM68.738 28.8c1.515 0 2.837-.341 3.968-1.024 1.152-.683 2.048-1.621 2.688-2.816.661-1.216.992-2.613.992-4.192 0-1.173-.192-2.24-.576-3.2-.363-.981-.885-1.824-1.568-2.528a6.87 6.87 0 0 0-2.432-1.664c-.917-.384-1.941-.576-3.072-.576-1.493 0-2.816.341-3.968 1.024a7.18 7.18 0 0 0-2.688 2.784c-.64 1.195-.96 2.581-.96 4.16 0 1.173.181 2.261.544 3.264.384.981.907 1.824 1.568 2.528a7.47 7.47 0 0 0 2.432 1.664c.939.384 1.963.576 3.072.576zm18.186-6.304v-3.04h5.664c1.131 0 2.005-.288 2.624-.864.64-.597.96-1.419.96-2.464 0-.939-.309-1.728-.928-2.368s-1.493-.96-2.624-.96h-5.696V9.6h5.856c1.408 0 2.645.288 3.712.864 1.067.555 1.888 1.323 2.464 2.304.597.96.896 2.059.896 3.296 0 1.301-.299 2.432-.896 3.392-.576.96-1.397 1.707-2.464 2.24s-2.304.8-3.712.8h-5.856zM84.396 32V9.6h3.68V32h-3.68zm12.288 0l-7.84-9.728 3.424-1.248L101.324 32h-4.64zm16.943.32c-1.621 0-3.125-.288-4.512-.864-1.365-.597-2.56-1.419-3.584-2.464-1.024-1.067-1.813-2.293-2.368-3.68-.554-1.408-.832-2.912-.832-4.512s.278-3.093.832-4.48c.555-1.408 1.344-2.635 2.368-3.68s2.219-1.867 3.584-2.464c1.387-.597 2.891-.896 4.512-.896 1.814 0 3.382.299 4.704.896a11.81 11.81 0 0 1 3.52 2.432l-2.496 2.496c-.661-.725-1.472-1.291-2.432-1.696-.938-.405-2.037-.608-3.296-.608-1.109 0-2.122.192-3.04.576a6.94 6.94 0 0 0-2.4 1.664c-.661.704-1.173 1.547-1.536 2.528s-.544 2.059-.544 3.232.182 2.251.544 3.232.875 1.835 1.536 2.56a7.16 7.16 0 0 0 2.4 1.632c.918.384 1.931.576 3.04.576 1.366 0 2.518-.203 3.456-.608.96-.427 1.771-1.003 2.432-1.728l2.496 2.496c-1.024 1.045-2.229 1.867-3.616 2.464s-2.976.896-4.768.896zm20.746 0c-1.6 0-3.093-.299-4.48-.896s-2.603-1.419-3.648-2.464c-1.045-1.067-1.867-2.293-2.464-3.68-.576-1.408-.864-2.912-.864-4.512s.288-3.093.864-4.48c.597-1.387 1.408-2.603 2.432-3.648a11 11 0 0 1 3.616-2.464c1.387-.597 2.88-.896 4.48-.896s3.083.299 4.448.896a10.91 10.91 0 0 1 3.648 2.464 11.08 11.08 0 0 1 2.432 3.68c.597 1.387.896 2.88.896 4.48s-.299 3.104-.896 4.512c-.576 1.387-1.387 2.603-2.432 3.648-1.024 1.045-2.229 1.867-3.616 2.464-1.365.597-2.837.896-4.416.896zm-.064-3.52c1.515 0 2.837-.341 3.968-1.024 1.152-.683 2.048-1.621 2.688-2.816.661-1.216.992-2.613.992-4.192 0-1.173-.192-2.24-.576-3.2-.363-.981-.885-1.824-1.568-2.528a6.87 6.87 0 0 0-2.432-1.664c-.917-.384-1.941-.576-3.072-.576-1.493 0-2.816.341-3.968 1.024-1.131.661-2.027 1.589-2.688 2.784-.64 1.195-.96 2.581-.96 4.16 0 1.173.181 2.261.544 3.264.384.981.907 1.824 1.568 2.528a7.47 7.47 0 0 0 2.432 1.664c.939.384 1.963.576 3.072.576zm17.374 3.2v-3.36h5.888c1.536 0 2.88-.331 4.032-.992a6.89 6.89 0 0 0 2.72-2.752c.661-1.195.992-2.571.992-4.128 0-1.536-.331-2.891-.992-4.064a7.11 7.11 0 0 0-2.752-2.752c-1.152-.661-2.485-.992-4-.992h-5.888V9.6h5.984c1.621 0 3.125.288 4.512.864 1.387.555 2.592 1.344 3.616 2.368 1.045 1.003 1.856 2.187 2.432 3.552.576 1.344.864 2.816.864 4.416 0 1.579-.288 3.051-.864 4.416a11.14 11.14 0 0 1-2.4 3.584c-1.024 1.003-2.229 1.792-3.616 2.368-1.387.555-2.88.832-4.48.832h-6.048zm-2.528 0V9.6h3.68V32h-3.68zm23.368 0V9.6h3.68V32h-3.68zm2.528 0v-3.36h12.544V32h-12.544zm0-9.824v-3.232h11.456v3.232h-11.456zm0-9.216V9.6h12.384v3.36h-12.384z"/></g><defs ><path id="B" d="M8.288 17.297a.72.72 0 0 1 .721-.721h5.405a.72.72 0 0 1 .721.721v5.405a.72.72 0 0 1-.721.721H9.009a.72.72 0 0 1-.721-.721v-5.405z"/><path id="C" d="M16.577 17.297a.72.72 0 0 1 .721-.721h5.405a.72.72 0 0 1 .721.721v5.405a.72.72 0 0 1-.721.721h-5.405a.72.72 0 0 1-.721-.721v-5.405z"/></defs></svg>