<svg xmlns="http://www.w3.org/2000/svg" width="114" height="24" fill="none" xmlns:v="https://vecta.io/nano"><g fill="#f2f5f9"><path d="M0 .432C0 .194.194 0 .434 0H3.69c.24 0 .434.194.434.432v3.243c0 .239-.194.432-.434.432H.434c-.24 0-.434-.194-.434-.432V.432zm19.97 0c0-.239.194-.432.434-.432h3.256c.24 0 .434.194.434.432v3.243c0 .239-.194.432-.434.432h-3.256c-.24 0-.434-.194-.434-.432V.432zM4.993 5.405c0-.239.194-.432.434-.432h3.256c.24 0 .434.194.434.432v3.243c0 .239-.194.432-.434.432H5.427c-.24 0-.434-.194-.434-.432V5.405zm9.985 0c0-.239.194-.432.434-.432h3.256c.24 0 .434.194.434.432v3.243c0 .239-.194.432-.434.432h-3.256c-.24 0-.434-.194-.434-.432V5.405z"/><use href="#B"/><use href="#C"/><path d="M0 15.351c0-.239.194-.432.434-.432H3.69c.24 0 .434.194.434.432v3.243c0 .239-.194.432-.434.432H.434c-.24 0-.434-.194-.434-.432v-3.243z"/><use href="#C" y="4.973"/><use href="#C" x="4.993" y="4.973"/><use href="#B" y="9.946"/><use href="#C" x="4.993" y="9.946"/><use href="#C" x="9.985" y="9.946"/><path d="M41.444 19.392a6.77 6.77 0 0 1-2.699-.538c-.835-.358-1.568-.851-2.197-1.478-.63-.64-1.124-1.376-1.484-2.208-.347-.845-.52-1.747-.52-2.707s.173-1.856.52-2.688a7.12 7.12 0 0 1 1.465-2.189 6.63 6.63 0 0 1 2.178-1.478 6.77 6.77 0 0 1 2.699-.538c.964 0 1.857.179 2.679.538a6.58 6.58 0 0 1 2.198 1.478c.63.627 1.118 1.363 1.465 2.208.36.832.54 1.728.54 2.688s-.18 1.862-.54 2.707c-.347.832-.835 1.562-1.465 2.189a6.76 6.76 0 0 1-2.178 1.478 6.59 6.59 0 0 1-2.66.538zm6.168.73l-6.072-6.048 1.426-1.421 6.072 6.048-1.426 1.421zm-6.207-2.842c.912 0 1.709-.205 2.39-.614.694-.41 1.234-.973 1.619-1.69.398-.73.598-1.568.598-2.515 0-.704-.116-1.344-.347-1.92-.218-.589-.533-1.094-.945-1.517a4.14 4.14 0 0 0-1.465-.998c-.553-.23-1.169-.346-1.85-.346-.9 0-1.696.205-2.39.614a4.32 4.32 0 0 0-1.619 1.67c-.386.717-.578 1.549-.578 2.496 0 .704.109 1.357.328 1.958.231.589.546 1.094.945 1.517.411.422.9.755 1.465.998.565.23 1.182.346 1.85.346zm10.955-3.782v-1.824h3.412c.681 0 1.208-.173 1.581-.518.386-.358.578-.851.578-1.478a1.96 1.96 0 0 0-.559-1.421c-.373-.384-.9-.576-1.581-.576H52.36V5.76h3.527c.848 0 1.593.173 2.236.518.643.333 1.137.794 1.484 1.382.36.576.54 1.235.54 1.978 0 .781-.18 1.459-.54 2.035-.347.576-.842 1.024-1.484 1.344s-1.388.48-2.236.48H52.36zM50.837 19.2V5.76h2.217V19.2h-2.217zm7.402 0l-4.723-5.837 2.063-.749 5.455 6.586h-2.795zm10.206.192c-.977 0-1.883-.173-2.718-.518a6.82 6.82 0 0 1-2.159-1.478 6.8 6.8 0 0 1-1.426-2.208c-.334-.845-.501-1.747-.501-2.707s.167-1.856.501-2.688c.334-.845.809-1.581 1.426-2.208s1.336-1.12 2.159-1.478c.835-.358 1.741-.538 2.718-.538 1.092 0 2.037.179 2.834.538a7.13 7.13 0 0 1 2.12 1.459l-1.504 1.498a4.12 4.12 0 0 0-1.465-1.018c-.565-.243-1.227-.365-1.985-.365a4.7 4.7 0 0 0-1.831.346 4.18 4.18 0 0 0-1.446.998c-.398.422-.707.928-.925 1.517s-.328 1.235-.328 1.939.109 1.35.328 1.939.527 1.101.925 1.536a4.31 4.31 0 0 0 1.446.979c.553.23 1.163.346 1.831.346.822 0 1.516-.122 2.082-.365a4.35 4.35 0 0 0 1.465-1.037l1.503 1.498c-.617.627-1.343 1.12-2.178 1.478s-1.793.538-2.872.538zm12.496 0a6.77 6.77 0 0 1-2.699-.538c-.835-.358-1.568-.851-2.197-1.478-.63-.64-1.124-1.376-1.484-2.208-.347-.845-.521-1.747-.521-2.707s.174-1.856.521-2.688a7.12 7.12 0 0 1 1.465-2.189 6.63 6.63 0 0 1 2.178-1.478 6.77 6.77 0 0 1 2.699-.538c.964 0 1.857.179 2.679.538a6.58 6.58 0 0 1 2.197 1.478c.63.627 1.118 1.363 1.465 2.208.36.832.54 1.728.54 2.688s-.18 1.862-.54 2.707c-.347.832-.835 1.562-1.465 2.189-.617.627-1.343 1.12-2.178 1.478a6.59 6.59 0 0 1-2.66.538zm-.038-2.112c.912 0 1.709-.205 2.39-.614.694-.41 1.234-.973 1.619-1.69.398-.73.597-1.568.597-2.515 0-.704-.116-1.344-.347-1.92-.218-.589-.533-1.094-.944-1.517a4.14 4.14 0 0 0-1.465-.998c-.553-.23-1.169-.346-1.85-.346-.9 0-1.696.205-2.39.614a4.32 4.32 0 0 0-1.619 1.67c-.385.717-.578 1.549-.578 2.496 0 .704.109 1.357.328 1.958.231.589.546 1.094.945 1.517.411.422.9.755 1.465.998.565.23 1.182.346 1.85.346zm10.465 1.92v-2.016h3.547c.925 0 1.735-.198 2.429-.595a4.14 4.14 0 0 0 1.638-1.651c.398-.717.598-1.542.598-2.477 0-.922-.199-1.734-.598-2.438s-.951-1.254-1.658-1.651c-.694-.397-1.497-.595-2.409-.595h-3.547V5.76h3.605c.977 0 1.883.173 2.718.518a6.41 6.41 0 0 1 2.178 1.421 6.34 6.34 0 0 1 1.465 2.131c.347.806.52 1.69.52 2.65 0 .947-.173 1.83-.52 2.65a6.68 6.68 0 0 1-1.446 2.15 6.82 6.82 0 0 1-2.178 1.421 7.22 7.22 0 0 1-2.699.499h-3.643zm-1.523 0V5.76h2.217V19.2h-2.217zm14.076 0V5.76h2.217V19.2h-2.217zm1.523 0v-2.016H113V19.2h-7.556zm0-5.894v-1.939h6.901v1.939h-6.901zm0-5.53V5.76h7.46v2.016h-7.46z"/></g><defs ><path id="B" d="M4.993 10.378c0-.239.194-.432.434-.432h3.256c.24 0 .434.194.434.432v3.243c0 .239-.194.432-.434.432H5.427c-.24 0-.434-.194-.434-.432v-3.243z"/><path id="C" d="M9.985 10.378c0-.239.194-.432.434-.432h3.256c.24 0 .434.194.434.432v3.243c0 .239-.194.432-.434.432h-3.256c-.24 0-.434-.194-.434-.432v-3.243z"/></defs></svg>