<svg xmlns="http://www.w3.org/2000/svg" width="24" height="24" fill="#4a5567" xmlns:v="https://vecta.io/nano"><path d="M3 15.2l-.707-.707-.707.707.707.707L3 15.2zm6.8 0v1-1zm5-4a1 1 0 1 0-2 0h2zm-8.507-.707l-4 4 1.414 1.414 4-4-1.414-1.414zm-4 5.414l4 4 1.414-1.414-4-4-1.414 1.414zM3 16.2h6.8v-2H3v2zm6.8 0a5 5 0 0 0 5-5h-2a3 3 0 0 1-3 3v2z"/><path d="M21.5 8.8l.707.707.707-.707-.707-.707-.707.707zm-7.3 0v1h0v-1zm-5 4a1 1 0 0 0 2 0h-2zm9.007.707l4-4-1.414-1.414-4 4 1.414 1.414zm4-5.414l-4-4-1.414 1.414 4 4 1.414-1.414zM21.5 7.8h-7.3v2h7.3v-2zm-7.3 0a5 5 0 0 0-5 5h2a3 3 0 0 1 3-3v-2z"/></svg>